<?xml version="1.0" standalone="no"?>
<!DOCTYPE svg PUBLIC "-//W3C//DTD SVG 1.1//EN" "http://www.w3.org/Graphics/SVG/1.1/DTD/svg11.dtd" >
<svg xmlns="http://www.w3.org/2000/svg">
<metadata>
Created by FontForge 20110222 at Thu Jan 24 10:55:56 2013
 By root
(c) isux tencent 2012
</metadata>
<defs>
<font id="sola-aoi" horiz-adv-x="881" >
  <font-face 
    font-family="sola-aoi"
    font-weight="400"
    font-stretch="normal"
    units-per-em="1000"
    panose-1="2 0 5 3 0 0 0 0 0 0"
    ascent="850"
    descent="-150"
    bbox="13.5 -86 901 791"
    underline-thickness="50"
    underline-position="-100"
    unicode-range="U+F774-F893"
  />
<missing-glyph horiz-adv-x="364" 
d="M33 0v666h265v-666h-265zM66 33h199v600h-199v-600z" />
    <glyph glyph-name=".notdef" horiz-adv-x="364" 
d="M33 0v666h265v-666h-265zM66 33h199v600h-199v-600z" />
    <glyph glyph-name="glyph1" unicode="&#xf800;" horiz-adv-x="885" 
d="M175 -23q-66 0 -113 47.5t-47 113.5v427q0 27 9 53h203v107h482q66 0 113.5 -47t47.5 -113v-427q0 -66 -47.5 -113.5t-113.5 -47.5h-534zM122 511l3 -376q0 -57 51 -57q50 0 50 57v376q-42 1 -104 0zM336 620v-432q0 -53 -18 -80t-75 -27h412q44 0 75.5 31.5t31.5 75.5
v432q-37 1 -213 -0.5t-213 0.5zM711 297v-103h-321v103h321zM711 510v-102h-321v102h321z" />
    <glyph glyph-name="glyph2" unicode="&#xf861;" horiz-adv-x="892" 
d="M72 -84q-24 0 -40.5 17t-16.5 41v747q0 24 16.5 40.5t40.5 16.5h748q24 0 40.5 -16.5t16.5 -40.5v-747q0 -24 -16.5 -41t-40.5 -17h-748zM648 434h-116v113q0 24 -16.5 40.5t-40.5 16.5h-58q-24 0 -40.5 -16.5t-16.5 -40.5v-113h-115q-24 0 -41 -17t-17 -41v-57
q0 -24 17 -41t41 -17h115v-116q0 -24 16.5 -41t40.5 -17h58q24 0 40.5 17t16.5 41v116h116q24 0 40.5 17t16.5 41v57q0 24 -16.5 41t-40.5 17z" />
    <glyph glyph-name="glyph30" unicode="&#xf774;" horiz-adv-x="784" 
d="M521 214q-9 30 -23 56h104q46 0 79.5 33t33.5 80q0 46 -33 79t-80 33q-17 0 -25 -2q4 16 4 37q0 73 -51.5 125t-124.5 52q-69 0 -119.5 -46.5t-56.5 -114.5q-14 2 -21 2q-57 0 -97.5 -41t-40.5 -98t40.5 -97.5t97.5 -40.5h117q-15 -29 -24 -57h-93q-80 0 -136.5 57.5
t-56.5 137.5q0 73 47.5 127.5t118.5 64.5q24 71 85.5 115.5t138.5 44.5q93 0 160 -62.5t75 -153.5q56 -13 92.5 -58.5t36.5 -103.5q0 -69 -49 -119t-118 -50h-81zM363 204q0 12 12 34.5t24 38.5l12 16q48 -62 48 -89q0 -20 -14 -34.5t-34 -14.5t-34 14.5t-14 34.5zM177 83
q0 12 12 34.5t24 38.5l12 17q48 -63 48 -90q0 -20 -14 -34t-34 -14t-34 14t-14 34zM570 83q0 12 12 34.5t24 38.5l12 17q49 -63 49 -90q0 -20 -14.5 -34t-34.5 -14t-34 14t-14 34zM373 -12q0 12 12 34.5t24 38.5l12 16q48 -62 48 -89q0 -20 -14 -34.5t-34 -14.5t-34 14.5
t-14 34.5z" />
    <glyph glyph-name="glyph31" unicode="&#xf775;" horiz-adv-x="816" 
d="M543 189q-7 23 -25 56h109q49 0 83.5 34.5t34.5 83.5t-34.5 83t-83.5 34q-14 0 -26 -3q4 17 4 40q0 76 -53.5 129.5t-130.5 53.5q-72 0 -124.5 -48t-58.5 -119q-7 1 -22 1q-59 0 -101.5 -42t-42.5 -101q0 -60 42.5 -102t101.5 -42q6 0 48.5 -0.5t73.5 -0.5
q-18 -32 -25 -57h-97q-83 0 -142 59.5t-59 142.5q0 76 49.5 132t123.5 67q25 74 89 120.5t144 46.5q96 0 167 -65.5t79 -160.5q58 -14 96 -60.5t38 -107.5q0 -72 -51 -123t-123 -51h-84zM377 176q0 12 12.5 35.5t25.5 40.5l13 17q50 -65 50 -93q0 -21 -14.5 -36t-35.5 -15
t-36 15t-15 36zM187 -37v130q0 8 5.5 14t13.5 6t14 -6t6 -14v-130q0 -8 -6 -13.5t-14 -5.5q-19 0 -19 19zM253 -21l-113 65q-10 7 -10 17t9.5 16.5t19.5 0.5l114 -66q16 -9 7 -26q-4 -7 -12 -9t-15 2zM159 -21q-10 -6 -19.5 0.5t-9.5 16t10 16.5l113 66q17 9 26.5 -7.5
t-6.5 -26.5zM593 -37v130q0 8 5.5 14t13.5 6t13.5 -6t5.5 -14v-130q0 -19 -19 -19t-19 19zM659 -21l-113 65q-10 7 -10 17t9.5 16.5t19.5 0.5l113 -66q16 -9 7 -26q-9 -16 -26 -7zM565 -21q-17 -9 -26 7t7 26l113 66q10 6 19.5 -0.5t9.5 -16.5t-10 -17z" />
    <glyph glyph-name="glyph29" unicode="&#xf776;" horiz-adv-x="848" 
d="M564 150q-8 28 -25 61h113q51 0 86.5 35.5t35.5 86.5t-35.5 86.5t-86.5 35.5q-14 0 -27 -3q4 17 4 41q0 80 -56 136t-135 56q-75 0 -129 -50.5t-61 -124.5q-14 2 -23 2q-62 0 -106 -44t-44 -106t44 -106t106 -44h126q-19 -36 -26 -62h-100q-87 0 -148.5 62.5t-61.5 149.5
q0 79 51.5 137.5t128.5 69.5q27 77 93 125.5t150 48.5q100 0 174 -67.5t82 -166.5q60 -14 99.5 -63.5t39.5 -112.5q0 -75 -53 -129t-128 -54h-88zM392 139q0 13 13 37t27 42l13 18q52 -68 52 -97q0 -22 -15 -37.5t-37 -15.5t-37.5 15.5t-15.5 37.5zM190 8q0 13 13 37.5
t27 42.5l13 18q52 -69 52 -98q0 -22 -15 -37t-37 -15t-37.5 15t-15.5 37zM617 8q0 13 13.5 37.5t26.5 42.5l13 18q52 -69 52 -98q0 -22 -15 -37t-37 -15t-37.5 15t-15.5 37z" />
    <glyph glyph-name="glyph28" unicode="&#xf778;" horiz-adv-x="827" 
d="M386 644v78q0 11 8.5 19t19.5 8t19 -8t8 -19v-78q0 -11 -8 -19.5t-19 -8.5t-19.5 8.5t-8.5 19.5zM706 323q-11 0 -19 8.5t-8 19.5t8 19.5t19 8.5h78q11 0 19.5 -8.5t8.5 -19.5t-8.5 -19.5t-19.5 -8.5h-78zM43 323q-11 0 -19.5 8.5t-8.5 19.5t8.5 19.5t19.5 8.5h77
q11 0 19.5 -8.5t8.5 -19.5t-8.5 -19.5t-19.5 -8.5h-77zM171 523l-55 55q-8 8 -8 19.5t8 19.5q20 19 39 0l55 -55q8 -8 8 -19.5t-8 -19.5q-20 -19 -39 0zM661 523q-19 -19 -39 0q-8 8 -8 19.5t8 19.5l55 55q19 19 39 0q8 -8 8 -19.5t-8 -19.5zM386 -22v78q0 11 8.5 19.5
t19.5 8.5t19 -8.5t8 -19.5v-78q0 -11 -8 -19t-19 -8t-19.5 8t-8.5 19zM155 83q-19 -19 -39 0q-8 8 -8 19.5t8 19.5l55 55q19 19 39 0q8 -8 8 -19.5t-8 -19.5zM677 83l-55 55q-8 8 -8 19.5t8 19.5q20 19 39 0l55 -55q8 -8 8 -19.5t-8 -19.5q-20 -19 -39 0zM186 351
q0 95 67 161.5t161 66.5t161 -66.5t67 -161.5t-67 -161.5t-161 -66.5t-161 66.5t-67 161.5zM247 351q0 -69 49 -118t118 -49t118 49t49 118t-49 118t-118 49t-118 -49t-49 -118z" />
    <glyph glyph-name="glyph27" unicode="&#xf779;" horiz-adv-x="841" 
d="M760 461q14 28 14 60q0 58 -40.5 98.5t-98.5 40.5q-15 0 -28 -3q-22 22 -50 39q35 16 78 16q79 0 135 -56t56 -135q0 -57 -31 -104q-17 27 -35 44zM540 142l46 56h34q48 0 82 34t34 82t-34 82t-82 34q-14 0 -26 -3q5 22 5 39q0 75 -53.5 128.5t-128.5 53.5
q-71 0 -123 -48t-58 -118q-14 2 -22 2q-59 0 -100.5 -41.5t-41.5 -100.5t41.5 -101t100.5 -42h38l-20 -57h-18q-82 0 -140.5 58.5t-58.5 141.5q0 75 49 130.5t122 66.5q25 73 88.5 118.5t142.5 45.5q95 0 165 -64t78 -158q57 -14 94.5 -60.5t37.5 -106.5q0 -71 -50.5 -121.5
t-121.5 -50.5h-80zM347 -14l46 154h-95l71 202h141l-82 -142h95zM149 67q0 17 11.5 28.5t28.5 11.5t29 -12t12 -28q0 -17 -12 -29t-29 -12q-16 0 -28 12t-12 29zM566 67q0 17 12 28.5t28 11.5t28 -11.5t12 -28.5t-12 -29t-28 -12t-28 12t-12 29z" />
    <glyph glyph-name="glyph25" unicode="&#xf780;" horiz-adv-x="868" 
d="M784 418q15 32 15 62q0 59 -42.5 101t-101.5 42q-20 0 -29 -2q-26 25 -51 39q41 18 80 18q82 0 140 -58t58 -140q0 -58 -32 -108q-15 26 -37 46zM554 87q-10 33 -25 61q29 0 67 -0.5t44 -0.5q50 0 85 35t35 84q0 50 -35 85t-85 35q-14 0 -27 -3q5 22 5 40q0 78 -55 133
t-133 55q-73 0 -127 -49.5t-60 -121.5q-14 2 -22 2q-60 0 -103.5 -44.5t-43.5 -105.5q0 -60 43 -102t104 -42q7 0 49.5 -0.5t74.5 -0.5q-20 -38 -26 -60h-98q-86 0 -146 60t-60 145q0 78 51 136.5t126 69.5q26 76 91 124.5t147 48.5q98 0 170.5 -68t80.5 -165
q59 -14 97.5 -62t38.5 -110q0 -74 -51.5 -126.5t-124.5 -52.5h-87zM385 73q0 12 13 36t26 42l13 18q51 -68 51 -96q0 -21 -15 -36t-36 -15t-36.5 15t-15.5 36z" />
    <glyph glyph-name="glyph26" unicode="&#xf781;" horiz-adv-x="916" 
d="M232 37q-90 0 -153.5 65t-63.5 155q0 82 53 143t133 72q27 80 97 131.5t156 51.5q103 0 179.5 -71.5t85.5 -174.5q63 -14 103.5 -65t40.5 -117q0 -78 -55 -134t-132 -56h-444zM648 350q4 19 4 43q0 83 -58 142t-140 59q-77 0 -134.5 -54t-64.5 -130q-16 2 -24 2
q-64 0 -109 -45t-45 -110t45.5 -110.5t109.5 -45.5h444q53 0 90 37t37 89q0 53 -37.5 90t-89.5 37q-10 0 -28 -4zM829 387q15 30 15 66q0 63 -44.5 107.5t-107.5 44.5q-10 0 -30 -4q-26 25 -55 42q41 19 85 19q86 0 147.5 -61.5t61.5 -147.5q0 -63 -34 -114q-14 26 -38 48z
" />
    <glyph glyph-name="glyph24" unicode="&#xf782;" horiz-adv-x="890" 
d="M805 467q15 32 15 65q0 61 -43.5 104t-104.5 43q-14 0 -29 -3q-21 20 -53 40q41 18 82 18q84 0 143.5 -59t59.5 -143q0 -61 -33 -111q-15 25 -37 46zM572 126l49 63h36q51 0 87 36t36 87t-36 87t-87 36q-14 0 -28 -3q5 22 5 41q0 80 -57 137.5t-136 57.5
q-75 0 -130 -51.5t-62 -126.5q-16 2 -23 2q-62 0 -106.5 -44.5t-44.5 -106.5t44.5 -106.5t106.5 -44.5h40l-19 -62h-19q-88 0 -150.5 62.5t-62.5 150.5q0 80 52 139t130 70q27 78 93.5 127.5t150.5 49.5q101 0 175 -69t82 -169q61 -14 101 -63.5t40 -113.5
q0 -75 -53.5 -130.5t-128.5 -55.5h-85zM367 -35l49 162l-101 1l76 213h149l-87 -151h101z" />
    <glyph glyph-name="glyph23" unicode="&#xf783;" horiz-adv-x="879" 
d="M585 75q-7 27 -26 64h117q53 0 90 37t37 89q0 53 -37.5 90t-89.5 37q-10 0 -28 -4q5 23 5 43q0 83 -58.5 141t-140.5 58q-78 0 -134.5 -52.5t-63.5 -129.5q-16 2 -23 2q-64 0 -110 -46t-46 -111q0 -64 45.5 -109t110.5 -45h131q-20 -36 -27 -64h-104q-90 0 -154 64
t-64 154q0 82 53.5 144t133.5 73q28 80 97 131.5t155 51.5q104 0 180.5 -71.5t85.5 -174.5q63 -14 103.5 -65t40.5 -117q0 -78 -54 -134t-132 -56h-93zM407 61q0 13 13.5 38.5t27.5 44.5l13 18q54 -71 54 -101q0 -23 -16 -39t-38 -16t-38 16t-16 39z" />
    <glyph glyph-name="glyph22" unicode="&#xf784;" horiz-adv-x="872" 
d="M700 216q45 6 71 40.5t26 83.5q0 52 -36.5 89t-89.5 37q-15 0 -28 -3q5 23 5 42q0 82 -57.5 139.5t-139.5 57.5q-77 0 -133 -51.5t-63 -127.5q-16 2 -24 2q-64 0 -109 -45.5t-45 -109.5q0 -57 31 -99t84 -52v-63q-78 10 -127.5 71t-49.5 143q0 81 53.5 142t132.5 72
q27 79 95.5 129t154.5 50q103 0 178.5 -70t84.5 -172q62 -14 102.5 -65t40.5 -116q0 -74 -43.5 -126t-113.5 -59v61zM259 188v71q0 18 12.5 31t30.5 13t31 -13t13 -31v-71q0 -18 -13 -30.5t-31 -12.5t-30.5 12.5t-12.5 30.5zM259 10v72q0 18 13 31t31 13t30.5 -13t12.5 -31
v-72q0 -18 -12.5 -31t-30.5 -13t-31 13t-13 31zM413 114v59q0 15 10.5 25.5t25.5 10.5t25.5 -10.5t10.5 -25.5v-59q0 -15 -10.5 -25.5t-25.5 -10.5t-25.5 10.5t-10.5 25.5zM413 -30v56q0 14 10 24t24 10t24.5 -10t10.5 -24v-56q0 -14 -10.5 -24t-24.5 -10t-24 10t-10 24z
M546 190v70q0 18 12.5 30.5t30.5 12.5t30.5 -12.5t12.5 -30.5v-70q0 -18 -12.5 -30.5t-30.5 -12.5t-30.5 12.5t-12.5 30.5zM546 11v71q0 18 13 31t31 13t31 -13t13 -31v-71q0 -18 -13 -31t-31 -13t-31 13t-13 31z" />
    <glyph glyph-name="glyph21" unicode="&#xf785;" horiz-adv-x="824" 
d="M662 234q42 6 66 38.5t24 78.5q0 49 -35 84t-84 35q-14 0 -26 -3q5 22 5 40q0 77 -54.5 131.5t-131.5 54.5q-72 0 -125.5 -49t-59.5 -121q-14 2 -23 2q-60 0 -102.5 -43t-42.5 -103q0 -54 29.5 -93t79.5 -49v-59q-74 10 -120.5 66.5t-46.5 134.5q0 77 50 134t125 68
q26 74 90.5 121t145.5 47q97 0 168.5 -65.5t79.5 -161.5q58 -14 96.5 -61.5t38.5 -109.5q0 -69 -40.5 -118.5t-106.5 -55.5v57zM245 59v231q0 17 12 29t29 12t29 -12t12 -29v-231q0 -17 -12 -29t-29 -12t-29 12t-12 29zM423 -50q-13 0 -23 10t-10 23v53v2v3v132
q0 13 9.5 22.5t23.5 9.5q13 0 22.5 -9.5t9.5 -22.5v-132v-3v-2v-53q0 -14 -9.5 -23.5t-22.5 -9.5zM517 59v231q0 17 12 29t29 12t29 -12t12 -29v-231q0 -17 -12 -29t-29 -12t-29 12t-12 29z" />
    <glyph glyph-name="glyph20" unicode="&#xf786;" horiz-adv-x="841" 
d="M80 547q0 22 15.5 37.5t37.5 15.5t37.5 -15.5t15.5 -37.5t-15.5 -37t-37.5 -15t-37.5 15t-15.5 37zM293 646q0 22 15.5 37t37.5 15t37 -15t15 -37t-15 -37.5t-37 -15.5t-37.5 15.5t-15.5 37.5zM293 444q0 22 15.5 37.5t37.5 15.5t37 -15.5t15 -37.5t-15 -37.5t-37 -15.5
t-37.5 15.5t-15.5 37.5zM481 547q0 22 15.5 37.5t37.5 15.5t37 -15.5t15 -37.5t-15 -37t-37 -15t-37.5 15t-15.5 37zM649 445q0 21 21 31.5t47 10.5q45 0 77 -32t32 -77t-32 -75.5t-77 -30.5h-5h-2h-660q-15 0 -25 8t-10 22t10 21.5t25 7.5l518 1h149q17 0 32.5 14.5
t15.5 31.5t-15 29.5t-33 12.5q-14 0 -23 -7q-8 -2 -11 -2q-14 0 -24 10t-10 24zM670 2q-27 0 -48 10t-21 31q0 14 10 24t24 10q4 0 12 -2q20 -10 23 -10q18 0 34.5 14t16.5 31t-17 32.5t-34 15.5h-149l-326 -1q-15 0 -25 7.5t-10 21.5t10 22t25 8h467h3h5q46 0 78.5 -30.5
t32.5 -74.5q0 -45 -33 -77t-78 -32z" />
    <glyph glyph-name="glyph19" unicode="&#xf787;" horiz-adv-x="872" 
d="M619 80v4q0 32 -11 59q22 0 50.5 -0.5t34.5 -0.5q50 0 77 35t27 90q0 52 -37 88t-89 36q-15 0 -28 -3q4 19 4 42q0 82 -57.5 139.5t-139.5 57.5q-77 0 -133 -51.5t-63 -127.5q-16 2 -23 2q-64 0 -109 -44.5t-45 -108.5q0 -66 35 -110t97 -44h84q-12 -27 -12 -59v-4h-72
q-87 0 -140.5 62.5t-53.5 154.5q0 81 53 141t133 71q27 79 95 128.5t154 49.5q103 0 178.5 -69.5t84.5 -171.5q62 -14 103 -64t41 -115q0 -80 -44.5 -133.5t-119.5 -53.5h-74zM428 35v157q0 10 6.5 16.5t16.5 6.5t16.5 -6.5t6.5 -16.5v-157q0 -10 -6.5 -17t-16.5 -7t-16.5 7
t-6.5 17zM508 54l-137 78q-11 9 -11 21t11.5 19.5t23.5 0.5l136 -79q8 -4 10.5 -14t-2.5 -18q-10 -19 -31 -8zM395 54q-12 -7 -23.5 0.5t-11.5 19t11 20.5l137 79q12 7 23 -0.5t11 -19.5t-11 -21z" />
    <glyph glyph-name="glyph18" unicode="&#xf788;" horiz-adv-x="865" 
d="M209 -36v137q0 8 6 14.5t14 6.5t14.5 -6.5t6.5 -14.5v-137q0 -8 -6.5 -14.5t-14.5 -6.5t-14 6.5t-6 14.5zM279 -20l-119 69q-10 7 -10 18t9.5 17.5t20.5 0.5l119 -69q18 -11 8 -28q-11 -18 -28 -8zM180 -20q-11 -6 -20.5 0.5t-9.5 17.5t10 18l119 69q11 6 20.5 -0.5
t9.5 -17.5t-10 -18zM592 165v4q0 35 -11 62q22 0 50.5 -0.5t33.5 -0.5q53 0 89 31.5t36 82.5t-36.5 84.5t-88.5 33.5q-13 0 -27 -3q4 17 4 42q0 81 -57 138t-138 57q-76 0 -132 -51.5t-63 -126.5q-16 2 -23 2q-63 0 -108 -42.5t-45 -105.5q0 -62 44.5 -101.5t108.5 -39.5h83
q-12 -29 -12 -62v-4h-71q-89 0 -151.5 59.5t-62.5 147.5q0 80 52.5 137.5t131.5 68.5q27 78 95 128t153 50q102 0 177 -69.5t84 -170.5q62 -15 102 -61.5t40 -110.5q0 -76 -54 -127.5t-131 -51.5h-73zM425 123v132q0 8 6 14t14 6t13.5 -6t5.5 -14v-132q0 -19 -19 -19
q-8 0 -14 5.5t-6 13.5zM492 139l-114 66q-10 7 -10 17.5t9.5 16.5t19.5 0l115 -66q16 -9 7 -26q-4 -7 -12 -9.5t-15 1.5zM397 139q-10 -6 -19.5 0t-9.5 16.5t10 17.5l114 66q10 6 19.5 0t10 -16.5t-9.5 -17.5zM646 -36v137q0 8 6 14.5t14 6.5t14.5 -6.5t6.5 -14.5v-137
q0 -8 -6.5 -14.5t-14.5 -6.5t-14 6.5t-6 14.5zM716 -20l-119 69q-10 7 -10 18t9.5 17.5t20.5 0.5l119 -69q18 -11 8 -28q-11 -18 -28 -8zM617 -20q-11 -6 -20.5 0.5t-9.5 17.5t10 18l119 69q11 6 20.5 -0.5t9.5 -17.5t-10 -18z" />
    <glyph glyph-name="glyph17" unicode="&#xf789;" horiz-adv-x="789" 
d="M191 64v126q0 7 5.5 12.5t13.5 5.5t13 -5t5 -13v-126q0 -8 -5 -13t-13 -5t-13.5 5.5t-5.5 12.5zM255 80l-109 62q-9 7 -9 16.5t9 15.5t19 0l108 -62q16 -9 7 -26q-8 -15 -25 -6zM165 80q-10 -6 -19 0t-9 15.5t9 16.5l109 62q10 6 18.5 0t8.5 -15.5t-9 -16.5zM539 248l1 1
v2q0 31 -11 56h77q48 0 81 28.5t33 74.5q0 47 -33 77t-81 30q-17 0 -25 -2q4 16 4 38q0 73 -51.5 125t-125.5 52q-69 0 -120 -46.5t-57 -115.5q-14 2 -21 2q-58 0 -99 -38.5t-41 -95.5t40.5 -93t99.5 -36h75q-11 -25 -11 -56v-3h-64q-81 0 -138 54t-57 134q0 73 47.5 125
t119.5 62q24 71 86 116t140 45q93 0 161 -62.5t76 -154.5q57 -13 93 -56t36 -101q0 -69 -49 -115.5t-119 -46.5h-67zM388 210v120q0 8 5 13t13 5q17 0 17 -18v-120q0 -18 -17 -18q-8 0 -13 5t-5 13zM449 224l-104 60q-9 6 -9 15.5t8.5 15.5t17.5 0l104 -60q16 -10 7 -24
q-9 -16 -24 -7zM362 224q-9 -5 -17.5 1t-8.5 15t9 15l104 60q9 5 17.5 -1t8.5 -15t-9 -15zM589 64v126q0 8 5.5 13t12.5 5q8 0 13.5 -5.5t5.5 -12.5v-126q0 -7 -5.5 -12.5t-13.5 -5.5q-7 0 -12.5 5t-5.5 13zM652 80l-108 62q-9 7 -9 16.5t8.5 15.5t18.5 0l109 -62
q16 -9 7 -26q-9 -16 -26 -6zM562 80q-10 -6 -18.5 0t-8.5 15.5t9 16.5l108 62q10 6 19 0t9 -15.5t-9 -16.5zM388 -68v120q0 17 18 17q17 0 17 -17v-120q0 -18 -17 -18q-8 0 -13 5t-5 13zM449 -54l-104 60q-9 6 -9 15.5t8.5 15.5t17.5 0l104 -60q15 -9 7 -24q-10 -16 -24 -7z
M362 -54q-9 -5 -17.5 1t-8.5 15t9 15l104 60q9 5 17.5 -1t8.5 -15t-9 -15z" />
    <glyph glyph-name="glyph16" unicode="&#xf790;" horiz-adv-x="885" 
d="M680 358q-10 0 -28 -4q5 23 5 43q0 83 -58.5 141.5t-141.5 58.5q-78 0 -135 -52.5t-64 -129.5q-16 2 -24 2q-56 0 -98 -31.5t-54 -83.5h-64q12 70 63 117.5t122 57.5q27 80 97 131t157 51q104 0 181 -71.5t86 -174.5q47 -11 82 -39.5t51 -71.5h-68q-33 56 -109 56z
M44 210q-12 0 -20.5 7t-8.5 17t8.5 16.5t20.5 6.5h796q12 0 21 -6.5t9 -16.5t-9 -17t-21 -7h-796zM89 125q-12 0 -20.5 6.5t-8.5 16.5t8.5 16.5t20.5 6.5h727q12 0 20.5 -6.5t8.5 -16.5t-8.5 -16.5t-20.5 -6.5h-727zM180 39q-12 0 -21 7t-9 17q0 22 30 22h547q30 0 30 -22
q0 -10 -9 -17t-21 -7h-547z" />
    <glyph glyph-name="glyph15" unicode="&#xf791;" horiz-adv-x="850" 
d="M566 148q-8 30 -25 62h113q51 0 86.5 35t35.5 86t-35.5 87t-86.5 36q-9 0 -27 -4q5 22 5 42q0 80 -57 137.5t-136 57.5q-75 0 -129.5 -52.5t-61.5 -126.5q-16 2 -24 2q-62 0 -105.5 -44t-43.5 -106t43.5 -106t105.5 -44h127q-17 -32 -25 -62h-102q-87 0 -148 62.5
t-61 149.5q0 79 51.5 138t128.5 70q27 78 94 128t150 50q101 0 175 -69.5t82 -169.5q61 -14 100 -63t39 -113q0 -75 -53 -129t-128 -54h-88zM495 103h-99q-14 2 -14 16q0 6 2 8l48 86q5 8 14 8t14 -8l47 -85v-1q3 -6 3 -8q0 -14 -15 -16zM280 -46h-117q-17 2 -17 19
q0 5 3 10l56 101q5 10 17 10q11 0 16 -10l56 -100v-1v-1q3 -4 3 -9q0 -17 -17 -19zM732 -47h-118v1q-17 2 -17 18q0 6 3 10l56 102q5 10 17 10t17 -10l55 -101l1 -1q3 -4 3 -10q0 -16 -17 -18v-1z" />
    <glyph glyph-name="glyph14" unicode="&#xf792;" 
d="M56 620q-18 0 -29.5 10t-11.5 26t11.5 26t29.5 10h768q18 0 30 -10t12 -26t-12 -26t-30 -10h-768zM104 455q-18 0 -30 9.5t-12 25.5t12 26.5t30 10.5h601q17 0 29 -10.5t12 -26.5t-11.5 -25.5t-29.5 -9.5h-601zM340 313q-18 0 -30 10.5t-12 26.5t12 26t30 10h437
q18 0 29.5 -10t11.5 -26t-12 -26.5t-29 -10.5h-437zM434 148q-18 0 -29.5 10t-11.5 26t12 26.5t29 10.5h271q17 0 29 -10.5t12 -26.5t-11.5 -26t-29.5 -10h-271zM362 7q-18 0 -30 9.5t-12 25.5t12 26.5t30 10.5h133q18 0 30 -10.5t12 -26.5t-12 -25.5t-30 -9.5h-133z" />
    <glyph glyph-name="glyph13" unicode="&#xf793;" horiz-adv-x="841" 
d="M55 298q-10 0 -17 6t-7 15t7 15t17 6h724q10 0 17 -6t7 -15t-7 -15t-17 -6h-724zM39 212q-10 0 -17 6t-7 15t7 15t17 6h763q10 0 17 -6t7 -15t-7 -15t-17 -6h-763zM79 126q-10 0 -17 6t-7 15t7 15t17 6h701q10 0 17 -6t7 -15t-7 -15t-17 -6h-701zM206 42q-10 0 -17 6
t-7 15t7 15t17 6h450q10 0 17 -6t7 -15t-7 -15t-17 -6h-450zM627 406q0 80 -55.5 135.5t-135.5 55.5q-75 0 -130 -50.5t-61 -124.5q-14 2 -22 2q-58 0 -103 -42h-79q24 39 64.5 66t87.5 34q26 77 92.5 126t150.5 49q100 0 173.5 -68.5t81.5 -167.5q40 -10 74 -39h-140
q2 14 2 24z" />
    <glyph glyph-name="glyph12" unicode="&#xf794;" horiz-adv-x="851" 
d="M581 95q0 1 1 4q0 30 -11 55h77q47 0 72.5 32.5t25.5 83.5q0 49 -34.5 83.5t-83.5 34.5q-14 0 -26 -3q4 17 4 39q0 77 -54 131t-130 54q-72 0 -124.5 -49t-58.5 -120q-14 2 -22 2q-60 0 -102 -42t-42 -102t42 -102t102 -42q5 0 22 0.5t37 0.5q-11 -25 -11 -56v-4h-48
q-83 0 -142.5 60t-59.5 143q0 76 50 132.5t124 67.5q25 74 89 121.5t144 47.5q96 0 167 -66.5t79 -161.5q58 -14 96 -61t38 -108q0 -74 -42 -124.5t-112 -50.5h-67zM401 46v149q0 9 6.5 15.5t15.5 6.5t15.5 -6.5t6.5 -15.5v-149q0 -9 -6.5 -15.5t-15.5 -6.5t-15.5 6.5
t-6.5 15.5zM476 64l-128 75q-11 8 -11 19t10.5 18.5t22.5 0.5l128 -75q8 -4 10.5 -13.5t-2.5 -16.5q-10 -19 -30 -8zM369 64q-12 -7 -22 0.5t-10 18.5t11 19l128 75q12 7 22.5 -0.5t10.5 -18.5t-11 -19zM769 420q14 30 14 61q0 59 -41 100t-99 41q-15 0 -29 -3
q-22 22 -50 39q37 17 79 17q80 0 136.5 -57t56.5 -137q0 -59 -31 -106q-15 25 -36 45z" />
    <glyph glyph-name="glyph11" unicode="&#xf795;" horiz-adv-x="859" 
d="M116 442q0 21 15 36t36 15t36 -15t15 -36t-15 -35.5t-36 -14.5t-36 14.5t-15 35.5zM601 442q0 21 15 36t36 15t36 -15t15 -36t-15 -35.5t-36 -14.5t-36 14.5t-15 35.5zM380 623q0 21 15 36t36 15t35.5 -15t14.5 -36t-14.5 -35.5t-35.5 -14.5t-36 14.5t-15 35.5zM380 381
q0 21 15 36t36 15t35.5 -15t14.5 -36t-14.5 -36t-35.5 -15t-36 15t-15 36zM49 165q-14 0 -24 9.5t-10 23.5q0 13 10 22.5t24 9.5h761q14 0 24 -9.5t10 -22.5q0 -14 -10 -23.5t-24 -9.5h-761zM150 26q-14 0 -23.5 9t-9.5 22t9.5 21.5t23.5 8.5h562q14 0 24 -8.5t10 -21.5
t-10 -22t-24 -9h-562z" />
    <glyph glyph-name="glyph10" unicode="&#xf796;" horiz-adv-x="837" 
d="M272 469q0 19 13 32.5t33 13.5t33.5 -13.5t13.5 -32.5t-13.5 -33t-33.5 -14q-19 0 -32.5 13.5t-13.5 33.5zM555 607q0 19 13.5 33t33.5 14t33.5 -14t13.5 -33t-13.5 -33t-33.5 -14t-33.5 14t-13.5 33zM728 182q0 20 14 33.5t33 13.5t33 -13.5t14 -33.5t-14 -33.5
t-33 -13.5t-33 13.5t-14 33.5zM625 96q0 20 13.5 33.5t33.5 13.5t33.5 -13.5t13.5 -33.5q0 -19 -13.5 -32.5t-33.5 -13.5t-33.5 13.5t-13.5 32.5zM413 470q0 18 18.5 27.5t41.5 9.5q40 0 68.5 -28.5t28.5 -68.5t-28.5 -69.5t-68.5 -29.5h-4h-2h-421q-13 0 -22 9.5t-9 22.5
t9.5 23.5t21.5 10.5l295 -1h132q16 0 27 9.5t11 24.5q0 16 -11 27t-27 11q-10 0 -20 -6q-6 -2 -10 -2q-13 0 -21.5 9t-8.5 21zM618 408q0 19 18.5 28.5t41.5 9.5q40 0 68.5 -28.5t28.5 -68.5q0 -39 -28.5 -66t-68.5 -27h-4h-2h-89q-13 0 -22 8t-9 20t9 20t22 8l2 -1h93
q16 0 27 11t11 27t-11 26.5t-27 10.5q-12 0 -20 -6q-3 -1 -10 -1q-12 0 -21 8.5t-9 20.5zM473 45q-23 0 -41.5 9.5t-18.5 27.5q0 13 8.5 21.5t21.5 8.5q4 0 10 -2q10 -6 20 -6q16 0 27 11t11 27q0 31 -38 31l-132 -1h-175q-13 0 -22 10t-9 23t9 23t22 10h301h2h4
q40 0 68.5 -28t28.5 -68t-28.5 -68.5t-68.5 -28.5z" />
    <glyph glyph-name="glyph0" unicode="&#xf798;" 
d="M628 -54q-82 -18 -180 -18q-186 0 -310 119q-123 119 -123 308q0 186 123 305q123 120 313 120q200 0 308 -114q107 -113 107 -304q0 -135 -78 -247h-223l-13 57q-39 -29 -66 -44q-31 -17 -81 -17q-90 0 -137.5 65.5t-47.5 170.5q0 114 64 178t145 64q61 0 122 -32v24h95
v-400l67 -1q4 7 13 19t14.5 23t8.5 28q3 16 15 50t12 50q0 152 -88 249q-44 49 -99 70t-138 21q-79 0 -133 -21.5t-105 -73.5q-107 -110 -107 -254q0 -78 23 -131.5t74 -105.5q48 -48 105 -67.5t140 -19.5q52 0 91 5q84 10 89 12v-88zM426 205q61 0 124 51v215
q-52 26 -107 26q-60 0 -96 -41q-17 -20 -23 -44t-6 -69q0 -40 3.5 -58t16.5 -38q27 -42 88 -42z" />
    <glyph glyph-name="glyph9" unicode="&#xf799;" horiz-adv-x="859" 
d="M558 198q55 7 92 48.5t37 98.5q0 52 -32 93t-82 52q-7 81 -67.5 136.5t-142.5 55.5q-69 0 -124 -39.5t-76 -102.5q-63 -9 -105.5 -57.5t-42.5 -113.5q0 -71 50.5 -121.5t121.5 -50.5h13q-7 12 -7 24q0 13 7 25h-13q-51 0 -87 36t-36 87t36 87t87 36q13 0 19 -1
q5 60 50.5 101.5t106.5 41.5q65 0 111 -46t46 -111q0 -12 -4 -34q11 3 23 3q42 0 71 -29.5t29 -71.5q0 -56 -49 -86q-6 -37 -32 -61zM468 306q-9 0 -16 -5l-1 1q-6 -2 -8 -2q-10 0 -17 7t-7 18q0 18 18 23q17 7 31 7q39 1 60.5 -21.5t21.5 -57.5q0 -33 -24.5 -56t-57.5 -23
h-3h-2h-279q-11 0 -18 7t-7 17q0 11 7.5 19.5t17.5 8.5h194h90q13 0 23.5 8.5t10.5 20.5t-10.5 20t-23.5 8zM722 313q0 14 14 21.5t31 7.5q33 0 55.5 -18.5t21.5 -55.5q-1 -30 -24 -51t-53 -21h-3h-2h-66q-9 0 -16 8t-7 17t6.5 16.5t16.5 7.5h2h69q12 0 22 6t10 17t-10 19.5
t-22 8.5q-10 0 -15 -4q-2 -1 -8 -1q-9 0 -15.5 6.5t-6.5 15.5zM605 17q-17 0 -31 7t-14 21q0 9 6.5 15.5t15.5 6.5q5 0 7 -1h1q8 -4 15 -4q12 0 20 6.5t8 17.5t-8 18t-20 7h-99h-292q-30 0 -51.5 26t-21.5 56q0 20 12 39q17 -10 41 -19q-9 -9 -9 -20q0 -12 8.5 -21.5
t19.5 -9.5h1h69h2h4h311h1h4q30 0 51 -21t21 -51t-21 -51.5t-51 -21.5z" />
    <glyph glyph-name="glyph4" unicode="&#xf826;" horiz-adv-x="878" 
d="M524 -68q-23 0 -40 16.5t-17 39.5v175q14 -11 32 -11h82q23 0 40 16.5t17 39.5v93q0 11 -8 27h176q23 0 40 -17t17 -40v-283q0 -23 -17 -39.5t-40 -16.5h-282zM524 384q-23 0 -40 16.5t-17 39.5v283q0 23 17 40t40 17h282q23 0 40 -17t17 -40v-283q0 -23 -17 -39.5
t-40 -16.5h-282zM71 -68q-23 0 -39.5 16.5t-16.5 39.5v283q0 23 16.5 40t39.5 17h283q23 0 40 -17t17 -40v-283q0 -23 -17 -39.5t-40 -16.5h-283zM71 384q-23 0 -39.5 16.5t-16.5 39.5v283q0 23 16.5 40t39.5 17h283q23 0 40 -17t17 -40v-283q0 -23 -17 -39.5t-40 -16.5
h-283z" />
    <glyph glyph-name="glyph3" unicode="&#xf862;" horiz-adv-x="843" 
d="M537 -57q-24 0 -41 17.5t-17 41.5v232q0 24 17 41t41 17h233q24 0 41 -17t17 -41v-232q0 -24 -17 -41.5t-41 -17.5h-233zM596 176v-116h116v116h-116zM537 408q-24 0 -41 17t-17 41v233q0 24 17 41t41 17h233q24 0 41 -17t17 -41v-233q0 -24 -17 -41t-41 -17h-233z
M73 -57q-24 0 -41 17.5t-17 41.5v232q0 24 17 41t41 17h233q24 0 41 -17t17 -41v-232q0 -24 -17 -41.5t-41 -17.5h-233zM73 408q-24 0 -41 17t-17 41v233q0 24 17 41t41 17h233q24 0 41 -17t17 -41v-233q0 -24 -17 -41t-41 -17h-233z" />
    <glyph glyph-name="glyph5" unicode="&#xf863;" horiz-adv-x="877" 
d="M796 134l-385 385q-11 11 -11 27.5t11 27.5t27.5 11t27.5 -11l385 -385q11 -11 11 -27.5t-11 -27.5t-27.5 -11t-27.5 11zM81 134q-11 -11 -27.5 -11t-27.5 11t-11 27.5t11 27.5l385 385q11 11 27.5 11t27.5 -11t11 -27.5t-11 -27.5z" />
    <glyph glyph-name="glyph6" unicode="&#xf864;" horiz-adv-x="916" 
d="M832 642q29 0 49 -20t20 -48v-511q0 -28 -20 -48t-49 -20h-681q-29 0 -48.5 19.5t-19.5 48.5v319q34 -13 68 -13q85 0 145 60t60 145q0 34 -13 68h489zM832 63v511h-408q0 -112 -80 -192.5t-193 -80.5v-238h681zM287 574q0 -56 -40 -96.5t-96 -40.5t-96 40.5t-40 96.5
t40 96t96 40t96 -40t40 -96zM83 574q0 -28 19.5 -48t48.5 -20t48.5 20t19.5 48t-19.5 48t-48.5 20t-48.5 -20t-19.5 -48z" />
    <glyph glyph-name="glyph7" unicode="&#xf865;" horiz-adv-x="887" 
d="M127 27q0 5 3 35.5t8 77t7 68.5l-113 172q-17 26 -17 58q0 39 23.5 67t57.5 36q109 25 161 38l100 157q31 48 89 48q64 0 93 -57q48 -72 79 -120l-4 -4q-5 -4 -12 -11l-16 -16l-21 -21l-24 -24l-95 145v3l-123 -193l-202 -48l46 -72q-3 -6 -3 -20q0 -23 15 -38l74 -74
l-20 -207l170 84q22 0 42 20l1 1l212 -105l-19 204l128 207l-12 3l13 13q15 15 15 37q0 23 -15 38l-23 23l46 -11q34 -8 57.5 -36t23.5 -67q0 -29 -16 -56q-82 -132 -109 -176q17 -167 17 -179q0 -42 -30.5 -73.5t-75.5 -31.5q-22 0 -46 11q-109 53 -166 81l-167 -82
q-21 -10 -46 -10q-45 0 -75.5 31.5t-30.5 73.5zM294 423l107 -107l252 253l78 -78l-328 -327l-75 75l-2 -3l-110 110z" />
    <glyph glyph-name="glyph8" unicode="&#xf866;" horiz-adv-x="895" 
d="M480 594l-26 47q-10 21 10 30t30 -11l25 -47q4 -9 1 -18t-11 -13q-19 -9 -29 12zM693 583q-6 -13 -18 -14.5t-20 8.5t-2 23l18 50q6 13 18.5 14.5t20.5 -8.5t2 -23zM197 25q-75 0 -128.5 54.5t-53.5 130.5q0 69 44.5 120t110.5 60q23 67 81.5 110t130.5 43
q87 0 150.5 -60t71.5 -146q52 -12 86.5 -54.5t34.5 -97.5q0 -66 -46 -113t-111 -47h-371zM545 288q4 15 4 36q0 69 -49 118.5t-118 49.5q-65 0 -113 -45t-53 -109q-14 2 -20 2q-54 0 -91.5 -38t-37.5 -92t38 -92t92 -38h371q44 0 75 30.5t31 74.5t-31 75t-75 31
q-11 0 -23 -3zM696 319q13 28 13 55q0 52 -37.5 89.5t-89.5 37.5q-14 0 -26 -3q-28 26 -45 36q33 15 71 15q73 0 124 -51t51 -124q0 -52 -29 -95q-14 23 -32 40zM808 462q-13 -6 -22.5 2t-8 20t14.5 18l48 23q13 6 22.5 -2t8 -20t-14.5 -18zM849 273l-51 18
q-13 5 -14.5 17.5t8 20.5t23.5 2l50 -18q9 -4 13.5 -12.5t0.5 -16.5q-9 -20 -30 -11z" />
    <glyph glyph-name="glyph32" unicode="&#xf867;" horiz-adv-x="902" 
d="M647 424q-33 -12 -42.5 -28.5t-2.5 -27.5l7 -10l38 -32q11 -16 9.5 -32.5t-9.5 -29.5l-8 -12q-9 -16 -23.5 -18.5t-24.5 2.5l-10 6l-243 243q-3 11 4.5 24.5t16.5 21.5l9 8q8 11 22 11t24 -6l9 -5l42 -46q19 -13 34.5 -3.5t25.5 27.5l10 18l116 174q18 32 40 48.5
t40 17.5t33.5 -2.5t23.5 -9.5l9 -6l77 -72q17 -39 10 -67t-24 -44l-18 -15zM703 639q0 -18 13 -31t31 -13t30.5 13t12.5 31t-12.5 31t-30.5 13t-31 -13t-13 -31zM443 35q-11 -10 -22 -34t-17 -43l-5 -19q-7 -9 -13 -12t-8 -1l-2 1l-60 58l34 74l-66 -44l-38 28l32 61
l-64 -25l-28 29l26 56l-58 -28l-48 56l38 56l-68 -26l-34 30q-17 11 -23 21t-3 15l2 4q-1 3 5.5 6.5t16.5 6t20.5 4l17.5 2.5l8 1q12 4 55.5 39t80.5 68l38 33q14 9 26.5 7.5t21.5 -7.5l8 -6l247 -242q5 -10 3.5 -19t-5.5 -16l-4 -7z" />
    <glyph glyph-name="glyph33" unicode="&#xf868;" horiz-adv-x="882" 
d="M137 -77q-50 0 -86 36t-36 86v365q0 50 36 86t86 36h61v122h121v-122h61v122h121v-122h64v122h121v-122h59q50 0 86 -36t36 -86v-365q0 -50 -36 -86t-86 -36h-608zM689 412h-494q-25 0 -43 -18t-18 -43v-63h616v63q0 25 -18 43t-43 18zM134 227v-121q0 -25 18 -42.5
t43 -17.5h494q25 0 43 17.5t18 42.5v121h-616zM686 776v-58h-125v58h125zM501 776v-58h-125v58h125zM319 776v-58h-124v58h124z" />
    <glyph glyph-name="glyph34" unicode="&#xf869;" horiz-adv-x="889" 
d="M764 329v-267q0 -44 -29.5 -75.5t-71.5 -31.5h-167v221q0 21 -26 35.5t-52 14.5t-54 -14.5t-28 -35.5v-221h-113q-42 0 -71.5 31.5t-29.5 75.5v267h-74q-33 35 -33 81t33 80l317 235q33 35 79.5 35t79.5 -35l317 -235q33 -34 33 -80t-33 -81h-77z" />
    <glyph glyph-name="glyph36" unicode="&#xf870;" horiz-adv-x="892" 
d="M446 783q178 0 304.5 -126.5t126.5 -305.5t-126.5 -305t-304.5 -126t-304.5 126t-126.5 305t126.5 305.5t304.5 126.5zM201 118l96 -3l-3 335l-157 2zM720 359q5 2 12 6t19 14t12 18q-1 16 -15.5 36.5t-32.5 22.5h-173q3 8 6.5 20.5t9.5 52t-2 70.5q-8 53 -31.5 91.5
t-41.5 39.5q-17 1 -38.5 -8.5t-25.5 -22.5q-2 -7 3 -40t1 -63t-45 -87.5t-42 -67.5l-2 -287l98 -39h197q37 0 52 10.5t22 30.5q3 7 0 17.5t-7 17.5l-5 7q35 16 39 38q2 10 -5 20t-15 16l-7 5q42 19 45 42q1 10 -6 20t-14 15z" />
    <glyph glyph-name="glyph35" unicode="&#xf871;" horiz-adv-x="868" 
d="M15 402l211 -2l3 -461l-128 4zM833 212q-2 -14 -17 -28t-30 -21l-14 -7q5 -3 11.5 -8t17 -19.5t7.5 -27.5q-2 -13 -15 -26t-25 -19l-12 -7q3 -4 6.5 -10t8.5 -21t1 -24q-10 -27 -29.5 -40.5t-68.5 -13.5l-263 -1l-132 52q0 266 2 383q2 14 37.5 52t71 82t39.5 75
q5 40 -1.5 84t-3.5 53q13 43 54 40q23 -2 54.5 -52.5t43.5 -121.5q6 -52 2 -94.5t-12 -69.5l-9 -27q197 4 232 0q24 -3 43 -30t21 -49q1 -11 -13.5 -23.5t-29.5 -20.5l-15 -7q5 -2 11.5 -6.5t17.5 -18.5t9 -28z" />
    <glyph glyph-name="glyph37" unicode="&#xf872;" horiz-adv-x="911" 
d="M57 604q-17 0 -29.5 12.5t-12.5 29.5v84q0 17 12.5 29t29.5 12h797q17 0 29.5 -12t12.5 -29v-84q0 -17 -12.5 -29.5t-29.5 -12.5h-797zM57 604q-17 0 -29.5 12.5t-12.5 29.5v84q0 17 12.5 29t29.5 12h797q17 0 29.5 -12t12.5 -29v-84q0 -17 -12.5 -29.5t-29.5 -12.5h-797
zM854 604q17 0 29.5 12.5t12.5 29.5v84q0 17 -12.5 29t-29.5 12h-797q-17 0 -29.5 -12t-12.5 -29v-84q0 -17 12.5 -29.5t29.5 -12.5h797zM57 310q-17 0 -29.5 12.5t-12.5 29.5v84q0 17 12.5 29.5t29.5 12.5h797q17 0 29.5 -12.5t12.5 -29.5v-84q0 -17 -12.5 -29.5
t-29.5 -12.5h-797zM57 17q-17 0 -29.5 12.5t-12.5 29.5v83q0 17 12.5 30t29.5 13h280q20 0 39 -9.5t19 -25.5l44 -91q0 -17 -12.5 -29.5t-29.5 -12.5h-340zM721 -56q-11 -12 -27 -12t-27 12l-163 178q-11 12 -11 29.5t11 29.5h380q11 -12 11 -29.5t-11 -29.5z" />
    <glyph glyph-name="glyph38" unicode="&#xf873;" horiz-adv-x="905" 
d="M812 655q78 -87 78 -222q0 -50 -13.5 -97.5t-32 -83t-50.5 -71t-56.5 -58t-63 -48.5t-58 -37.5t-52.5 -29.5q-25 -15 -29 -17q-31 -35 -80 -37h-2q-48 0 -80 35q-3 2 -13 7l-14 7q-32 17 -50.5 27.5t-57.5 36t-64.5 48t-58.5 58.5t-52.5 72.5t-33.5 85.5t-14 101
q0 136 78 223q78 89 195 89q92 0 165 -58q73 56 165 56q115 0 194 -87zM453 63q2 8 37 27.5t82.5 48.5t95 68t80.5 98.5t33 127.5q0 66 -26 114.5t-66.5 67t-85 17t-86.5 -34t-65 -87.5q-21 48 -54 78.5t-69 40.5t-73 2t-66 -32t-47.5 -68t-18.5 -99q0 -59 23.5 -111.5
t59.5 -88t78 -66t78.5 -49t62 -33t27.5 -21.5z" />
    <glyph glyph-name="glyph39" unicode="&#xf874;" 
d="M865 655q0 -1 0.5 -3t0.5 -3v-598l-304 283zM47 693q6 2 11 2h765l-343 -366q-17 -20 -37 -20t-31 10l-12 10zM15 51v588l304 -305l-304 -284v1zM501 270l21 22l302 -287h-766h-4l304 290l21 -21q24 -22 54.5 -23t48.5 9z" />
    <glyph glyph-name="glyph40" unicode="&#xf875;" horiz-adv-x="641" 
d="M321 -80q-35 0 -72.5 19t-65.5 46t-51 54t-36 46l-12 19q-31 23 -48 49.5t-19 48.5t-0.5 40.5t6.5 29.5l5 10q0 29 17 47t41.5 23.5t49 7t41.5 -1.5l17 -2l309 1q32 0 57.5 -15t35.5 -30l9 -15q18 -17 20.5 -41.5t-6 -47.5t-20 -44t-21.5 -34l-10 -12q-41 -58 -81 -99.5
t-69 -60t-51.5 -28t-34.5 -10.5h-11zM123 596q0 81 56.5 138t137.5 57t138 -57.5t57 -137.5q0 -81 -57 -137.5t-138 -56.5t-137.5 56.5t-56.5 137.5z" />
    <glyph glyph-name="glyph41" unicode="&#xf876;" horiz-adv-x="880" 
d="M865 351q0 -21 -3 -42q-9 -66 -29 -116t-43 -76t-51 -42t-48 -20t-40 -4q-3 0 -8 0.5t-7 0.5q-23 -59 -75 -93t-123 -34h-6h-3h-16q-157 0 -251 77.5t-94 207.5q0 31 11 63q-64 46 -64 137q0 63 30.5 133t88 121t123.5 51q26 0 54 -10q55 77 162 77q62 0 150 -31
q12 -3 19 -8q57 -34 88.5 -86.5t31.5 -113.5q0 -13 -1 -19q49 -21 76.5 -66.5t27.5 -106.5zM544 398q3 11 2 23q35 12 61 28q31 20 44 56.5t-2 78t-61 68.5q-59 21 -101.5 24t-64 -10.5t-32.5 -34t-9.5 -51t7 -56t15.5 -54.5q-15 15 -39 18q-28 94 -89 117q-49 19 -101 -52
q-47 -64 -52 -132q-6 -67 43 -70q106 -7 156 18q9 -6 19 -9q2 -8 10 -22q-176 -37 -176 -128q0 -55 26.5 -94t64 -55t75 -24t64.5 -7l26 1q1 2 11.5 0t27 3t33 12.5t29 28t14.5 49.5q3 45 -50 135q14 3 26 12q17 -29 33 -51q26 -35 56.5 -51t59.5 -10t53 48t34 116
q5 37 -2 62t-24.5 35t-38.5 13t-48.5 -3t-51 -13.5t-48.5 -18.5z" />
    <glyph glyph-name="glyph42" unicode="&#xf877;" 
d="M852 -59q-19 -20 -53.5 -13t-63.5 36l-90 88q-2 2 -4.5 5t-3.5 4q-115 -83 -259.5 -72.5t-247.5 113.5q-76 76 -103 177t0 202.5t103 177.5q116 115 279 115t278 -115q103 -103 113.5 -247.5t-72.5 -259.5q2 -2 5.5 -4t4.5 -3l90 -87q29 -29 36 -63t-12 -54zM217 572
q-77 -76 -76 -185t79 -187t187 -79t186 75q76 77 75 186t-79 187t-187 79t-185 -76z" />
    <glyph glyph-name="glyph43" unicode="&#xf879;" horiz-adv-x="814" 
d="M744 489q23 0 39 16.5t16 39.5v56q0 23 -16 39.5t-39 16.5h-670q-23 0 -39.5 -16.5t-16.5 -39.5v-56q0 -23 16.5 -39.5t39.5 -16.5h670zM135 159q-17 13 -17 32t17 33l237 196q17 14 39.5 14t39.5 -14l236 -196q17 -14 17 -33t-17 -32h-552zM298 44q-23 0 -39.5 16.5
t-16.5 39.5v67q0 23 16.5 39t39.5 16h224q23 0 39 -16t16 -39v-67q0 -23 -16 -39.5t-39 -16.5h-224zM15 601h50v-221h-50v221zM749 601h50v-221h-50v221z" />
    <glyph glyph-name="glyph44" unicode="&#xf890;" horiz-adv-x="754" 
d="M719 560q20 -20 20 -49t-20 -49l-293 -293q-20 -20 -49 -20t-49 20l-293 293q-20 20 -20 49t20 49h684z" />
    <glyph glyph-name="glyph45" unicode="&#xf891;" horiz-adv-x="761" 
d="M726 151q20 20 20 49.5t-20 49.5l-296 295q-20 20 -49.5 20t-49.5 -20l-296 -295q-20 -20 -20 -49.5t20 -49.5h691z" />
    <glyph glyph-name="glyph46" unicode="&#xf892;" horiz-adv-x="797" 
d="M73 50q-23 0 -39 16t-16 38v55q0 22 16 38t39 16h654q23 0 39 -16t16 -38v-55q0 -22 -16 -38t-39 -16h-654zM441 281q-16 -13 -38.5 -13t-38.5 13l-232 191q-16 13 -16 31.5t16 32.5h540q16 -14 16 -32.5t-16 -31.5zM510 474q22 0 38.5 16t16.5 39v65q0 22 -16.5 38.5
t-38.5 16.5h-219q-22 0 -38 -16t-16 -39v-65q0 -23 16 -39t38 -16h219zM15 321h49v-217h-49v217zM732 104h49v217h-49v-217z" />
    <glyph glyph-name="glyph47" unicode="&#xf893;" horiz-adv-x="879" 
d="M325 -5q8 -3 24 -7zM864 350q0 -114 -55.5 -211t-149.5 -153q-13 -2 -15 -8q-95 -53 -204 -53q-119 0 -217 59q5 3 9 8q0 1 7.5 3.5t7.5 4.5t-7.5 1.5t-15.5 -1.5t-12 1q-2 1 0 10t-1 9q-6 2 -6 0l1 -2q1 -8 -12 -9q-2 0 -4 3l-4 6t-3 3q-2 -1 -5 -1t-5 -1
q-87 70 -128 173q7 1 18 7q3 1 7 -2.5t5 -2.5q2 3 0.5 7t-4 10t-2.5 8q0 3 3 5.5t5.5 4t1.5 2.5q-3 4 -14 4q-2 0 -2.5 -2.5t-3.5 -5.5q-1 -1 -11 -5.5t-11 -6.5q-22 66 -22 135q0 175 124.5 299.5t300.5 124.5q115 0 212.5 -57t154.5 -154.5t57 -212.5zM502 -62
q-3 -3 -2 -3q7 -1 17 10q2 2 2 3q1 14 -33 14q1 3 5 5t6.5 2.5t0 3t-12.5 7.5q-8 4 -26 -17q-5 -6 -3 -6q12 2 14 -5t15 -4q0 -2 14 -5q6 -2 3 -5zM534 -40q14 0 17.5 1.5t-0.5 3.5t-9 5t-5 4t14 4q5 1 -3 4q-5 2 -12 4q-12 4 -17 -9q-4 -8 1.5 -12.5t13.5 -4.5zM440 722
q-148 0 -257 -102.5t-116 -250.5q-23 9 -23 28q-1 17 -12.5 6.5t-11.5 -25.5q0 -9 2 -11.5t8.5 -6t12.5 -9.5q11 -13 24 -11q3 -148 109 -254q36 -36 85 -63q-2 -1 -4.5 0t-3.5 1.5t-1 -1.5q0 -6 4.5 -12.5t11.5 -5.5q2 0 7 0.5t8 0.5q5 0 13.5 -4t11.5 -1l9 -3t8 -3
q-5 -2 -8 -4.5t-2 -4.5q6 -6 7 -5t4 5t6 4q1 0 3 -6.5t6 -5.5q8 0 8 8v2q46 -11 91 -11q154 0 263 109t109 264q0 154 -109 263t-263 109z" />
  </font>
</defs>
</svg>
